<svg xmlns="http://www.w3.org/2000/svg" viewBox="0 0 871 619"><defs><style>.cls-1{fill:#efba49}.cls-2{fill:#781b43}</style></defs><path class="cls-1" d="M730.91.06V0c-13,27.19-35.37,46.4-59.92,62.49a367.76,367.76,0,0,1-44,24.9c-25.15,11.92-51,22.47-76.48,33.75C516.87,136,489.06,157.87,470,189.87c-6,10.13-30.4,50.88-36.73,61.65-.94-1.33-21.58-35.22-31.25-51.39-10-16.74-20.89-32.75-35.39-46.1-17.36-16-37.76-26.8-59-36.36-28-12.62-56.34-24.62-83.84-38.25-26.91-13.33-51.62-30.19-71-53.6-6.65-8-12.35-17-18.18-25.41-3.71,29.42,3.54,58.42,22.71,81.07,14,16.52,31.62,28.58,50.62,38.15,23.58,11.82,47.58,22.63,71.75,33.17,29.77,12.9,54.26,31.73,71.16,59.73,17.67,29.22,35.18,58.6,52.89,87.87A23.71,23.71,0,0,1,407,313.26c0,30.62.16,93.08.16,95h51.44s-.17-65.36.06-96.72a22,22,0,0,1,2.86-10.62c16.52-27.88,33.32-55.58,50-83.34,18.15-30.19,43.3-52.23,76-65.54q17.34-7.09,34.55-14.6c23.46-10.16,46.16-21.5,66.46-37.24C713.16,81.1,728.9,56.85,731.7,25.35,732.46,17,731,8.5,730.91.06Z"/><path class="cls-1" d="M134.6.41c.13-1-.25.93,0,0Z"/><path class="cls-2" d="M395.67,169.88C395.49,169.7,395.86,170.15,395.67,169.88Z"/><path class="cls-2" d="M421.31,111.53a148.08,148.08,0,0,0-63.91,19.81,188.25,188.25,0,0,1,38.27,38.51,98.55,98.55,0,0,1,37-7.15,97.25,97.25,0,0,1,36,6.76c12.41-12.71,25.68-26.41,37.9-38.9C480.12,116,451.6,109.17,421.31,111.53Z"/><path class="cls-2" d="M523.92,222.22"/><path class="cls-2" d="M341.82,222.22"/><path class="cls-2" d="M167.9,163.53C167.8,163.14,167.9,164.19,167.9,163.53Z"/><path class="cls-2" d="M212.22,236C212.59,235.74,212.1,235.91,212.22,236Z"/><path class="cls-2" d="M697.83,163.53C697.83,164.19,698,163.14,697.83,163.53Z"/><path class="cls-2" d="M653.51,236C653.63,235.91,653.14,235.74,653.51,236Z"/><path class="cls-2" d="M581.42,203.67c17.57-7.13,35.57-13.06,53.27-19.93,10.82-4.21,21.5-8.71,31.82-13.94,31.52-16,49.24-42.42,56.77-76.34.92-4.1,1.53-10.09,2.24-14.24-20.89,30.84-52.14,47.08-84.06,62.06-19.33,9.1-39.12,17.25-58.62,26-15.66,7.06-30.26,16-41.56,29.07-6.73,7.75-12,17-17.37,25.83,21.75,50.35-2.24,109.48-52.58,131.24a106,106,0,0,1-38.65,7.33c-23,0-45.13-8.76-62-21.87-22-18.16-37-46.4-37-77.13a99,99,0,0,1,8.13-39.53c-5.36-8.83-10.65-18.08-17.37-25.83-11.31-13-25.9-22-41.56-29.07-19.5-8.79-39.29-16.94-58.63-26-31.91-15-63.17-31.22-84.06-62.06.72,4.15,1.33,10.14,2.25,14.24,7.52,33.92,25.25,60.37,56.77,76.34,10.32,5.23,21,9.75,31.83,13.94,17.66,6.87,35.71,12.8,53.27,19.93A66.47,66.47,0,0,1,315.51,229c3.25,5,5.47,11.53,8.17,16.86-11.67-19.11-31.42-28.72-51.63-35.61-12.7-4.31-25.39-8.56-38.09-12.86-19-6.44-37.74-13.55-54.31-25.2-3.91-2.74-7.71-5.64-11.74-8.61,10.14,31.83,29.7,56.4,62,67.09,15.44,5.11,31.22,9.1,46.82,13.7,11.34,3.35,22.1,7.93,31.42,15.45,6.44,5.22,10.79,11.86,14.2,19.08-6.07-4.42-11.59-9.88-18.21-12.94a237.14,237.14,0,0,0-33.78-12.39c-19.22-5.52-40-8.61-58.14-17.54,7.5,14.45,17.38,27.17,31.54,35.67,10.2,6.13,21.3,9.75,32.79,12.51,10.67,2.58,21.45,4.89,31.87,8.2,8.53,2.7,14.54,9.08,19,17-12.08-8.45-26.55-11.31-40.92-11.72C300,354,343.87,392.07,387.82,405.48a153.09,153.09,0,0,0,44.88,6.81,150.8,150.8,0,0,0,39.81-5.35c45.81-11.5,92.71-50.67,106.77-109.32-14.37.41-28.85,3.27-40.93,11.72,4.46-7.91,10.47-14.29,19-17,10.43-3.31,21.2-5.62,31.87-8.2,11.49-2.76,22.59-6.38,32.79-12.51,14.17-8.5,24-21.22,31.55-35.67-18.2,8.93-38.93,12-58.14,17.54a236.14,236.14,0,0,0-33.79,12.41c-6.63,3.06-12.15,8.52-18.22,12.94,3.42-7.22,7.77-13.86,14.21-19.08,9.32-7.52,20.07-12.1,31.42-15.45,15.6-4.6,31.38-8.59,46.81-13.7,32.32-10.69,51.89-35.26,62-67.09-4,3-7.82,5.87-11.73,8.61-16.58,11.65-35.3,18.76-54.31,25.2-12.7,4.3-25.39,8.55-38.09,12.86-20.22,6.89-40,15.56-51.64,34.67,2.7-5.33,4.93-11,8.18-15.92A66.57,66.57,0,0,1,581.42,203.67Z"/><path class="cls-2" d="M109.26,525.34c-8.59,31-36.21,59.52-74,59.52s-38.91-25-31.91-50.32c8.59-31,36.21-59.53,74-59.53S116.25,500.05,109.26,525.34Zm-44.68-43.7c-20.86,0-30.68,22-34,34.24-8.84,31.92-4.42,62.48,17.55,62.48S79.19,556.26,82.51,544C91.34,512.08,86.51,481.64,64.58,481.64Z"/><path class="cls-2" d="M177,532h-1.1c-2.33-11-7-19.39-18.9-19.39s-19.27,11-22.22,21.48c-6.62,24.17,1.84,32.27,14.12,32.27S170,557.9,173.31,552.5l1.47.61c-6.75,12.52-22.58,31.66-41.72,31.66s-25.17-18.16-20-36.69,22.58-41,52.16-41h18.53l-6.87,24.8Z"/><path class="cls-2" d="M249.3,532h-1.11c-2.33-11-7-19.39-18.9-19.39s-19.27,11-22.21,21.48c-6.63,24.17,2,32.27,14.11,32.27s21.11-8.46,24.42-13.86l1.48.61c-6.75,12.52-22.59,31.66-41.73,31.66s-25.16-18.16-20-36.69,22.59-41,52.16-41h18.54l-6.88,24.8Z"/><path class="cls-2" d="M295.44,507l-13.13,47.49C279,566.4,278.63,574,290.53,574s11.42-2.58,16.7-7.25L320,520.53,312.26,507h30.07L324.9,570.33l7,12.65-29.33,1,3.44-12.4c-7.73,7.73-16.33,13-27.25,13-15.83,0-20.37-10.19-16.32-24.79l10.79-39.29L265.37,507Z"/><path class="cls-2" d="M353.13,569.77,368.22,515,361,503.12l11.42-3.19L374,494l-7.24-11.9,31.54-8.84-26.63,96.59,7.73,13.26H337.91L353,569.89Z"/><path class="cls-2" d="M439.9,485.2l-6,22h29.71l-5.79,8.33H431.51l-10.55,38c-4,14.85-1.84,18.9,7.36,18.9s12.4-2.34,17.68-9l1.22,2.45c-10.92,12.52-21,18.9-33.5,18.9s-18-6.13-13.26-23.81l12.15-44.06-7.48-9.69,34.85-22Z"/><path class="cls-2" d="M548.64,566.53,555.51,583h-43l16-16.49,7.48-27.1-14.85-46.15-9.58-16.44h49.71L543.61,493.3h-.1l11.26,34.39,29.83-34.61L575.88,477h39.28l-20,14.6-37.55,42.22-9.1,32.71Z"/><path class="cls-2" d="M663.89,541.66c-5.52,20-25.41,43.2-54.13,43.2S581,567.06,586.2,548.53s25.4-43.2,54.12-43.2S669,523.12,663.89,541.66Zm-33.51-30.44c-12.88,0-18,13.87-20.62,23.2C603.14,558.59,606.33,579,620,579s18.53-15.22,20.74-23.2c6.59-24.21,3.26-44.58-10.35-44.58Z"/><path class="cls-2" d="M750,491.82l-22.92,13.57c-1.93,0-4.79,0-8.91,0-23.93,0-39,16-42.71,29.22-2.57,9.2-.12,17.84,8.35,21.84-7.12,3.68-16.94,9-19.52,18.41a10.75,10.75,0,0,0,5.77,12.52c-5.77,2.21-15,6.51-17.06,14.11-2.94,10.8.75,17.43,26.15,17.43s43.69-16.32,48.6-34.24a21.77,21.77,0,0,0,0-12.64H686.18c-5.28-.74-7.73-2.82-6.5-7.49.5-1.82,3.48-4,6-5.85,1.88,0,5.17.07,10.58.07,23.93,0,39.52-16.57,43.2-29.82,1.59-5.55,1.22-10.83-1.23-15C743.66,506.82,746.61,501.4,750,491.82Zm-37.22,97.7c1,2.09,1.83,1.36-.24,8.84s-16.07,17.06-30.07,17.06-20-5.16-17.18-15.34a17.07,17.07,0,0,1,8-10.55Zm4.2-51.06c-1.71,6.14-4.16,16.2-13,16.2s-10.56-13.45-6.14-29.45c1.72-6.26,4.79-15.34,12.4-15.34l.11.12C719.1,510,721.44,522.46,717,538.46Z"/><path class="cls-2" d="M756.67,516l31.91-10.31-17.67,64.06L778.64,583H737.16l15.09-13.26L763.79,528l-7.28-11.9Z"/><path class="cls-2" d="M829.88,512.33c9.93-.25,17.17,7.24,20,17.43h.85l6.14-22.46h-22.7c-15.79,0-28.6,10.06-31.79,21.48-8.47,30.56,34.94,21.6,29.94,39.88-2,7-1.6,10.07-14.36,10.07s-21.72-11.66-22.09-24.92h-1.22l-6.14,27.25c5.23,2.47,11,3.56,23.15,3.56s32.47-6.87,37.38-24.79c7.73-28.31-36.58-21.31-32.16-37.31A13.31,13.31,0,0,1,829.88,512.33Z"/><path class="cls-1" d="M789.07,468.88l-17.18,14.24,9.33,14.41,17.18-14.36-9.21-14.24Z"/><path class="cls-1" d="M845.41,503.86h14.85L856.7,517c4.66-6.5,9.45-13,14.11-19.51-8.46,2.08-16.81,4.29-25.28,6.38Z"/></svg>