<svg width="24" height="24" viewBox="0 0 24 24" fill="none" xmlns="http://www.w3.org/2000/svg">
<g clip-path="url(#clip0_543_311)">
<path d="M12 16.8844C11.5155 16.8844 11.0474 16.8132 10.6052 16.6812L12 19.0757L13.3949 16.6812C12.9527 16.8132 12.4845 16.8844 12 16.8844Z" fill="#F9E9C7"/>
<path d="M7.23976 10.9035C7.45154 9.9838 7.9239 9.16269 8.57443 8.52191H5.85254L7.23976 10.9035Z" fill="#F9E9C7"/>
<path d="M12.0001 15.4782C13.921 15.4782 15.4782 13.921 15.4782 12C15.4782 10.0791 13.921 8.52191 12.0001 8.52191C10.0792 8.52191 8.52197 10.0791 8.52197 12C8.52197 13.921 10.0792 15.4782 12.0001 15.4782Z" fill="#F9E9C7"/>
<path d="M18.0374 7.11563C16.6118 5.35688 14.4351 4.23047 12 4.23047C9.5649 4.23047 7.38826 5.35688 5.96265 7.11563H18.0374Z" fill="#F9E9C7"/>
<path d="M19.2997 9.33783L13.2856 19.6626C16.9601 19.0481 19.7696 15.8462 19.7696 12C19.7696 11.0653 19.6036 10.1686 19.2997 9.33783Z" fill="#F9E9C7"/>
<path d="M4.70039 9.33783C4.39645 10.1686 4.23047 11.0653 4.23047 12C4.23047 15.8462 7.03997 19.0481 10.7145 19.6626L4.70039 9.33783Z" fill="#F9E9C7"/>
<path d="M15.4255 8.52185C16.0761 9.16263 16.5484 9.98374 16.7602 10.9034L18.1475 8.52185H15.4255Z" fill="#F9E9C7"/>
<path d="M23.8131 11.5227L22.1187 9.68988L22.8521 7.30361C22.9601 6.95224 22.7793 6.57695 22.4371 6.44256L20.1137 5.53L19.7392 3.06217C19.6841 2.69922 19.3588 2.43972 18.9927 2.46644L16.5029 2.6485L15.0941 0.587267C14.8867 0.283798 14.4806 0.191314 14.1622 0.375017L12 1.62264L9.83773 0.375017C9.5193 0.191173 9.11318 0.283798 8.9058 0.587267L7.49707 2.6485L5.00721 2.46644C4.64149 2.43972 4.31585 2.69917 4.26077 3.06217L3.88624 5.53L1.56284 6.44256C1.2207 6.57695 1.0398 6.95224 1.1478 7.30361L1.88126 9.68988L0.18682 11.5227C-0.0622734 11.7921 -0.0622734 12.2079 0.18682 12.4773L1.88126 14.3101L1.14776 16.6964C1.03976 17.0478 1.22065 17.423 1.56279 17.5574L3.8862 18.47L4.26073 20.9378C4.3158 21.3008 4.64182 21.5613 5.00716 21.5335L7.49702 21.3515L8.9058 23.4127C9.04132 23.611 9.26154 23.7192 9.48682 23.7192C9.60635 23.7191 9.72734 23.6887 9.83768 23.625L12 22.3773L14.1622 23.625C14.4806 23.8087 14.8867 23.7161 15.0941 23.4127L16.5029 21.3515L18.9927 21.5335C19.3586 21.5609 19.6841 21.3009 19.7392 20.9378L20.1137 18.47L22.4371 17.5574C22.7793 17.423 22.9601 17.0478 22.8521 16.6964L22.1187 14.3101L23.8131 12.4773C24.0623 12.2079 24.0623 11.7921 23.8131 11.5227ZM12 21.1758C6.94043 21.1758 2.8242 17.0596 2.8242 12C2.8242 6.94047 6.94043 2.82424 12 2.82424C17.0595 2.82424 21.1758 6.94047 21.1758 12C21.1758 17.0596 17.0595 21.1758 12 21.1758Z" fill="#F9E9C7"/>
</g>
<defs>
<clipPath id="clip0_543_311">
<rect width="24" height="24" fill="white"/>
</clipPath>
</defs>
</svg>
