<svg width="42" height="42" viewBox="0 0 42 42" fill="none" xmlns="http://www.w3.org/2000/svg">
<mask id="mask0_420_715" style="mask-type:alpha" maskUnits="userSpaceOnUse" x="0" y="0" width="42" height="42">
<circle cx="21" cy="21" r="21" fill="white"/>
<circle cx="21" cy="21" r="20.5" stroke="black" stroke-opacity="0.1"/>
</mask>
<g mask="url(#mask0_420_715)">
<mask id="mask1_420_715" style="mask-type:alpha" maskUnits="userSpaceOnUse" x="0" y="0" width="42" height="42">
<circle cx="21" cy="21" r="21" fill="white"/>
</mask>
<g mask="url(#mask1_420_715)">
</g>
<g clip-path="url(#clip0_420_715)">
<path d="M13.4574 4.92917C13.7267 4.74268 13.7267 4.58726 13.4159 4.43185C13.1922 4.30143 12.9776 4.15605 12.7736 3.9967C13.4263 3.63407 14.079 3.42686 14.7421 3.23C16.3169 2.75341 17.9436 2.49439 19.5702 2.31825C19.6738 2.31825 19.7774 2.3597 19.8396 2.23537H22.4816C22.9375 2.4115 23.4141 2.40114 23.8907 2.51511C25.4033 2.86737 26.7502 3.50974 27.7863 4.72195C27.8482 4.78266 27.9179 4.83492 27.9935 4.87737C27.9905 4.96587 28.0159 5.05301 28.0661 5.12602C28.9778 6.47292 28.6255 8.87663 27.1336 9.81946C27.03 9.89198 26.8435 9.96451 26.8228 10.151C26.5948 10.0992 26.4498 10.2546 26.2736 10.3582C26.17 10.3997 26.0664 10.4307 25.9421 10.4618C25.0501 10.794 24.115 10.9963 23.1654 11.0627C23.1343 10.897 23.01 10.9177 22.896 10.9177C22.4261 10.911 21.9591 10.8414 21.5077 10.7105C20.223 10.3582 18.9382 9.96451 17.6431 9.64332C16.0683 9.24961 14.5349 9.40502 13.0637 10.1614C12.2348 10.5758 12.2348 10.5758 12.2348 9.64332C12.192 8.07421 12.6059 6.52646 13.4263 5.18819C13.4884 5.11566 13.5921 5.03278 13.4574 4.92917Z" fill="#694B4B"/>
<path d="M3.7493 33.6078C4.22589 32.9033 4.95115 32.6443 5.73857 32.4681C7.45846 32.0744 9.15762 31.6703 10.8879 31.2766C11.5613 31.1212 12.2348 30.9658 12.9186 30.8208C13.1569 31.1109 13.2812 31.4631 13.4366 31.7947C14.2033 33.4731 14.9597 35.1516 15.7367 36.83C15.9854 37.348 16.5034 37.4931 17.0007 37.1823C17.2494 37.0269 17.467 36.8093 17.7053 36.6435C18.2233 36.2912 18.6377 35.8146 19.2801 35.6282C19.249 36.0011 19.4666 36.2498 19.6945 36.4881L19.2905 42H9.34412C9.34412 41.3473 9.36484 40.6842 9.34412 40.0315C9.32402 39.4261 9.14539 38.8366 8.82608 38.322C8.51526 37.8039 8.0283 37.4206 7.58279 37.0165C6.65032 36.1876 5.75929 35.3173 4.8061 34.5092C4.47455 34.1984 4.19481 33.7943 3.7493 33.6078Z" fill="#EEF1F9"/>
<path d="M29.0918 30.8104C29.9206 30.9347 30.6977 31.1627 31.4955 31.3595C33.2257 31.7739 34.9456 32.1884 36.6758 32.5821C37.3088 32.7194 37.8692 33.0844 38.2507 33.6078C38.1557 33.65 38.0654 33.7021 37.9813 33.7632C37.3597 34.3123 36.7691 34.8718 36.1578 35.4209C35.5051 36.0011 34.8523 36.5813 34.1893 37.1615C33.4951 37.7832 32.9045 38.4566 32.7388 39.4098C32.5833 40.2698 32.6973 41.1297 32.6559 42H30.6355V41.7721C30.6355 40.8396 30.3972 40.6013 29.4647 40.6013C28.2525 40.6013 27.0403 40.6221 25.8385 40.6013C24.6366 40.5806 24.3672 40.7982 24.4294 42H22.7199L22.3262 36.4777C22.5541 36.2291 22.7717 35.9804 22.7406 35.6178C22.8569 35.6115 22.9725 35.6404 23.0721 35.7007C23.6316 36.1358 24.2326 36.5088 24.761 36.9958C25.3619 37.5345 26.0561 37.4102 26.3565 36.685C27.0818 35.0272 27.8381 33.3902 28.5944 31.7429C28.7395 31.432 28.8431 31.0798 29.0918 30.8104Z" fill="#EEF1F9"/>
<path d="M3.7493 33.6078C4.18445 33.7943 4.45383 34.1984 4.8061 34.4988C5.75929 35.307 6.65032 36.1773 7.58279 37.0061C8.03866 37.4206 8.51526 37.7832 8.82608 38.3116C9.14713 38.8293 9.32583 39.4226 9.34412 40.0315C9.3752 40.6842 9.34412 41.3473 9.34412 42H4.14301C3.29342 41.6063 3.10693 40.8914 3.12765 40.0315C3.15873 38.4774 3.12765 36.9233 -1.51398 40.0315C-1.49326 72.5436 -1.3482 71.922 -0.89233 71.4246L3.7493 33.6078Z" fill="#E3E9F5"/>
<path d="M32.6559 42C32.687 41.1401 32.5833 40.2698 32.7388 39.4098C32.9149 38.4566 33.5055 37.7728 34.1893 37.1615C34.842 36.5813 35.5051 36.0219 36.1578 35.4209C36.7795 34.8718 37.37 34.3123 37.9813 33.7632C38.0654 33.7021 38.1557 33.65 38.2507 33.6078C38.7066 34.0948 38.8723 34.706 38.8723 35.3484C38.8931 37.0683 38.8723 38.7882 38.8723 40.4977C38.8723 41.223 38.4786 41.6892 37.8673 42H32.6559Z" fill="#E3E9F5"/>
<path d="M22.3158 36.4777L22.7095 42H19.2905L19.6842 36.4777H22.3158Z" fill="#5C5E6E"/>
<path d="M26.284 10.3478C26.4601 10.2442 26.5948 10.0992 26.8331 10.1406C27.807 10.8659 28.3251 11.902 28.6773 13.0106C29.0192 14.0881 29.1539 15.1863 29.2368 16.326C29.2575 16.5747 29.3197 16.7094 29.6098 16.6576C29.9551 16.6008 30.3095 16.6515 30.6252 16.8026C31.2468 17.2688 31.3919 17.8594 31.195 18.595C30.9464 19.5068 30.7391 20.4185 30.5008 21.3303C30.3662 21.8794 30.1382 22.0762 29.5891 22.0866C29.2783 22.0866 29.3301 22.2731 29.3301 22.4492C29.3612 23.4128 29.1229 24.2935 28.5737 25.0809C28.2999 25.4586 27.9717 25.7938 27.5998 26.0755C27.4354 26.1794 27.2885 26.3088 27.1647 26.4589C27.0403 26.4381 26.9989 26.5625 26.916 26.6039L26.8331 26.6868C26.2884 27.0289 25.769 27.4097 25.279 27.8265C24.3258 28.6035 23.269 29.0387 22.005 28.9454C21.5388 28.9144 21.0725 28.9454 20.6167 28.9454C19.8614 28.5807 19.1908 28.0619 18.6481 27.4224C17.4773 26.003 16.8868 24.3971 16.8868 22.5528C16.8868 19.9765 16.8868 17.4035 16.8868 14.8341C16.8868 13.4664 17.7674 12.4822 19.2283 12.4718C20.3205 12.4787 21.4105 12.3745 22.4816 12.161C23.6213 11.9227 24.7299 11.6015 25.6934 10.9177C25.9214 10.7726 26.2322 10.6794 26.284 10.3478Z" fill="#EFBF86"/>
<path d="M29.0918 30.8104C28.8431 31.0798 28.7395 31.432 28.5944 31.7429C27.8381 33.3799 27.0818 35.0272 26.3565 36.6849C26.0457 37.3895 25.3515 37.5345 24.761 36.9958C24.2429 36.5192 23.6213 36.1358 23.0722 35.7007C22.9725 35.6404 22.8569 35.6115 22.7406 35.6178C22.7406 35.4416 22.5956 35.3898 22.4712 35.307C22.005 35.0169 21.5388 34.7371 21.0622 34.447C21.3937 34.0533 21.8081 33.7218 22.2018 33.3902C23.4244 32.292 24.6574 31.2145 25.8592 30.0955C26.3254 29.6811 26.8538 29.3081 27.2268 28.7797C27.3304 28.7486 27.434 28.7175 27.5169 28.6761C27.8485 28.5725 28.1386 28.6346 28.3251 28.9247C28.5116 29.1837 28.667 29.4738 28.8638 29.7225C29.1021 30.0644 29.299 30.3959 29.0918 30.8104Z" fill="#E3E9F5"/>
<path d="M30.6252 16.8233C30.3095 16.6722 29.9551 16.6216 29.6098 16.6783C29.3197 16.7301 29.2576 16.5954 29.2368 16.3467C29.1539 15.2278 29.0296 14.1192 28.6773 13.0313C28.3251 11.8916 27.7967 10.8866 26.8331 10.1614C26.8331 9.97487 27.0196 9.90234 27.144 9.82982C28.6359 8.89113 29.0089 6.48329 28.0764 5.13638C28.0263 5.06338 28.0009 4.97623 28.0039 4.88773C29.04 5.04314 29.7652 5.6337 30.3454 6.46256C31.1432 7.60225 31.4851 8.90771 31.7131 10.2546C31.8861 11.3406 31.9658 12.4394 31.9514 13.539C31.9605 13.7453 31.8942 13.9478 31.7649 14.1088C31.1225 14.8755 30.7702 15.808 30.6252 16.8233Z" fill="#785651"/>
<path d="M27.2061 28.8004C26.8331 29.3184 26.3047 29.6811 25.8385 30.1162C24.6366 31.2248 23.4037 32.3023 22.1915 33.4006C21.8081 33.7425 21.3937 34.0637 21.0518 34.4574H20.9482C20.6581 34.1776 20.368 33.8875 20.0675 33.6078C19.1869 32.7997 18.3 32.0019 17.4152 31.1937C18.0521 31.2652 18.695 31.2652 19.3319 31.1937C20.1682 31.1299 20.9913 30.9485 21.777 30.655C23.6005 29.9712 25.1132 28.8315 26.398 27.3913C26.5741 27.1841 26.8435 27.0184 26.8331 26.6972L26.916 26.6143C26.9989 26.5625 27.0403 26.4381 27.1647 26.4692C27.1785 27.2428 27.1923 28.0199 27.2061 28.8004Z" fill="#E5AF78"/>
<path d="M26.284 10.3479C26.2322 10.6587 25.9317 10.7623 25.7142 10.9281C24.7402 11.6015 23.642 11.9227 22.5023 12.1714C21.4312 12.3848 20.3412 12.489 19.249 12.4822C17.7985 12.4822 16.8971 13.4768 16.9075 14.8444C16.9075 17.4208 16.9075 19.9937 16.9075 22.5632C16.9075 24.4074 17.5084 26.0134 18.6688 27.4328C19.2065 28.0662 19.8698 28.5813 20.6166 28.9455C20.59 28.9726 20.5574 28.9932 20.5215 29.0058C20.4856 29.0184 20.4472 29.0226 20.4094 29.018C19.0833 29.0594 17.871 28.7693 16.8142 27.9094C16.1926 27.3913 15.5399 26.8733 14.825 26.4589C14.452 26.0444 13.9339 25.7751 13.5817 25.3192C13.0636 24.5939 12.7114 23.8376 12.6907 22.9362C12.6907 22.7911 12.6596 22.6565 12.6596 22.5218C12.6596 22.242 12.556 22.1073 12.2451 22.1073C12.0862 22.1037 11.9332 22.0465 11.811 21.9449C11.6887 21.8433 11.6044 21.7034 11.5717 21.5479C11.2816 20.4807 11.0122 19.4032 10.7635 18.336C10.6392 17.7869 10.8672 17.331 11.2401 16.9269C11.6546 16.7197 12.1001 16.5643 12.587 16.7197C12.815 16.7923 12.7943 16.6472 12.7943 16.5125C12.7808 15.9312 12.8364 15.3504 12.96 14.7823C13.2709 13.28 14.0583 12.1403 15.5191 11.5186C16.5034 11.1042 17.5188 10.9695 18.5756 11.0006C20.1297 11.0524 21.6631 11.3114 23.2068 11.0835C24.1564 11.0171 25.0915 10.8147 25.9835 10.4825L26.284 10.3479Z" fill="#E5AE78"/>
<path d="M23.1861 11.0627C21.632 11.301 20.0986 11.0317 18.5549 10.9799C17.4981 10.9488 16.4827 11.0835 15.4984 11.4979C14.0479 12.1195 13.2605 13.2592 12.9393 14.7615C12.8122 15.3293 12.7531 15.9101 12.7632 16.4918C12.7632 16.6161 12.7943 16.7612 12.556 16.699C12.0794 16.5436 11.6442 16.699 11.2091 16.9062C11.0433 15.8701 10.7946 14.8341 10.0901 13.9845C10.011 13.884 9.96724 13.7601 9.96577 13.6322C9.86216 11.1871 10.2766 8.89735 11.6649 6.83555C12.1446 6.09877 12.7515 5.45324 13.4573 4.92917C13.6024 5.03278 13.4781 5.1053 13.4263 5.17783C12.6023 6.51499 12.1847 8.06282 12.2244 9.63296C12.2451 10.5654 12.2451 10.5654 13.0533 10.151C14.5038 9.39466 16.0579 9.24961 17.6327 9.63296C18.9278 9.94378 20.2229 10.3582 21.4973 10.7001C21.9583 10.8373 22.4359 10.9105 22.9167 10.9177C23.0203 10.9177 23.155 10.897 23.1861 11.0627Z" fill="#5B4246"/>
<path d="M17.4255 31.2041C18.3062 32.0019 19.1868 32.81 20.0779 33.6182C20.3887 33.8979 20.6684 34.188 20.9585 34.4677C20.4923 34.7578 20.0261 35.0376 19.5495 35.3277C19.4459 35.4002 19.2905 35.452 19.2801 35.6385C18.6584 35.825 18.2233 36.3016 17.7053 36.6539C17.467 36.8196 17.2494 37.0372 17.0007 37.1926C16.5034 37.5034 15.9854 37.3688 15.7367 36.8404C14.9596 35.1619 14.2137 33.4835 13.4366 31.805C13.2812 31.4735 13.1569 31.1212 12.9186 30.8311C12.7114 30.4167 12.8979 30.1058 13.1569 29.7639C13.333 29.5567 13.4677 29.2977 13.6335 29.0594C13.9443 28.6139 14.1308 28.5621 14.6385 28.7693C14.6856 28.7871 14.7341 28.801 14.7835 28.8108C15.6124 29.6707 16.5345 30.4167 17.4255 31.2041Z" fill="#E3E9F5"/>
<path d="M17.4255 31.2041C16.5345 30.4167 15.6124 29.65 14.7939 28.79C14.7939 28.0164 14.8042 27.2394 14.825 26.4589C15.5502 26.8733 16.1719 27.3913 16.8142 27.9094C17.871 28.7797 19.0936 29.0698 20.4094 29.018C20.4472 29.0226 20.4855 29.0184 20.5215 29.0058C20.5574 28.9932 20.59 28.9726 20.6166 28.9454C21.0829 28.9454 21.5491 28.9144 22.005 28.9454C23.2483 29.0491 24.3154 28.6035 25.279 27.8265C25.769 27.4097 26.2884 27.0289 26.8331 26.6868C26.8331 27.0183 26.5741 27.1841 26.398 27.381C25.1132 28.8315 23.6005 29.9712 21.777 30.6446C20.999 30.9433 20.1829 31.1316 19.3526 31.2041C18.7123 31.2763 18.0659 31.2763 17.4255 31.2041Z" fill="#D19B6E"/>
<path d="M19.2905 35.6178C19.2905 35.4417 19.4459 35.3899 19.5599 35.307C20.0261 35.0169 20.4923 34.7371 20.9689 34.447H21.0518C21.518 34.7268 21.9843 35.0169 22.4609 35.307C22.5645 35.3795 22.7199 35.4313 22.7303 35.6178C22.7613 35.9908 22.5438 36.2394 22.3158 36.4777H19.7049C19.4666 36.2394 19.249 35.9908 19.2905 35.6178Z" fill="#525363"/>
</g>
</g>
<circle cx="21" cy="21" r="20.5" stroke="white" stroke-opacity="0.1"/>
<defs>
<clipPath id="clip0_420_715">
<rect width="35.7447" height="39.7854" fill="white" transform="translate(3.12766 2.21465)"/>
</clipPath>
</defs>
</svg>
