<svg width="24" height="24" viewBox="0 0 24 24" fill="none" xmlns="http://www.w3.org/2000/svg">
<path d="M20.867 0.223267L3.13312 0.223267C2.39737 0.223267 1.79761 0.823032 1.79761 1.55878V22.4413C1.79761 23.177 2.39737 23.7768 3.13312 23.7768H20.867C21.6028 23.7768 22.2025 23.177 22.2025 22.4413V1.55878C22.2025 0.823032 21.6027 0.223267 20.867 0.223267ZM21.4741 22.4412C21.4741 22.7763 21.1997 23.0483 20.867 23.0483H3.13312C2.80045 23.0483 2.52609 22.7763 2.52609 22.4412V1.55878C2.52609 1.22367 2.8005 0.951751 3.13312 0.951751H20.867C21.1997 0.951751 21.4741 1.22372 21.4741 1.55878V22.4412Z" fill="#F9E9C7"/>
<path d="M8.23242 9.58354L9.54853 10.7102H18.9108V8.45685H9.54853L8.23242 9.58354ZM9.98803 9.21932H13.4409C13.6425 9.21932 13.8052 9.38202 13.8052 9.58354C13.8052 9.7851 13.6425 9.94775 13.4409 9.94775H9.98803C9.78647 9.94775 9.62381 9.78505 9.62381 9.58354C9.62381 9.38202 9.78647 9.21932 9.98803 9.21932Z" fill="#F9E9C7"/>
<path d="M6.78105 8.73515L5.85789 9.65817L5.71136 9.51164C5.5691 9.36937 5.33861 9.36946 5.1963 9.5115C5.05403 9.65376 5.05403 9.88439 5.1963 10.0267L5.60036 10.4309C5.74324 10.5737 5.97377 10.5725 6.11542 10.4309L7.29606 9.25021C7.43833 9.10804 7.43833 8.87732 7.29606 8.73515C7.1538 8.59284 6.92331 8.59284 6.78105 8.73515Z" fill="#F9E9C7"/>
<path d="M8.23242 4.84129L9.54853 5.96797H18.9108V3.7146H9.54853L8.23242 4.84129ZM9.98803 4.47707H13.4409C13.6425 4.47707 13.8052 4.63977 13.8052 4.84129C13.8052 5.04285 13.6425 5.20551 13.4409 5.20551H9.98803C9.78647 5.20551 9.62381 5.0428 9.62381 4.84129C9.62381 4.63977 9.78647 4.47707 9.98803 4.47707Z" fill="#F9E9C7"/>
<path d="M6.78105 3.9929L5.85789 4.91592L5.71136 4.76939C5.5691 4.62712 5.33861 4.62722 5.1963 4.76925C5.05403 4.91151 5.05403 5.14214 5.1963 5.2844L5.60036 5.68861C5.74324 5.83148 5.97377 5.83022 6.11542 5.68861L7.29606 4.50797C7.43833 4.36579 7.43833 4.13508 7.29606 3.9929C7.1538 3.85059 6.92331 3.85059 6.78105 3.9929Z" fill="#F9E9C7"/>
<path d="M8.23242 14.3258L9.54853 15.4525H18.9108V13.1991L9.54853 13.1991L8.23242 14.3258ZM9.98803 13.9616H13.4409C13.6425 13.9616 13.8052 14.1243 13.8052 14.3258C13.8052 14.5273 13.6425 14.69 13.4409 14.69H9.98803C9.78647 14.69 9.62381 14.5273 9.62381 14.3258C9.62381 14.1243 9.78647 13.9616 9.98803 13.9616Z" fill="#F9E9C7"/>
<path d="M6.78105 13.4772L5.85789 14.4002L5.71136 14.2537C5.5691 14.1114 5.33861 14.1115 5.1963 14.2535C5.05403 14.3958 5.05403 14.6264 5.1963 14.7687L5.60036 15.1729C5.74324 15.3158 5.97377 15.3145 6.11542 15.1729L7.29606 13.9922C7.43833 13.8501 7.43833 13.6194 7.29606 13.4772C7.1538 13.3349 6.92331 13.3349 6.78105 13.4772Z" fill="#F9E9C7"/>
<path d="M8.23242 19.0681L9.54853 20.1948H18.9108V17.9414L9.54853 17.9414L8.23242 19.0681ZM9.98803 18.7039H13.4409C13.6425 18.7039 13.8052 18.8666 13.8052 19.0681C13.8052 19.2672 13.6425 19.4323 13.4409 19.4323H9.98803C9.78647 19.4323 9.62381 19.2672 9.62381 19.0681C9.62381 18.8665 9.78647 18.7039 9.98803 18.7039Z" fill="#F9E9C7"/>
<path d="M6.78105 18.2193L5.85789 19.1423L5.71136 18.9958C5.5691 18.8535 5.33861 18.8536 5.1963 18.9957C5.05403 19.1379 5.05403 19.3685 5.1963 19.5108L5.60036 19.915C5.74324 20.0579 5.97377 20.0566 6.11542 19.915L7.29606 18.7344C7.43833 18.5922 7.43833 18.3615 7.29606 18.2193C7.1538 18.077 6.92331 18.077 6.78105 18.2193Z" fill="#F9E9C7"/>
</svg>
