<svg width="24" height="24" viewBox="0 0 24 24" fill="none" xmlns="http://www.w3.org/2000/svg">
<g clip-path="url(#clip0_543_299)">
<path d="M11.9999 9.99999C12.7119 9.99999 13.4079 9.78885 14 9.39328C14.592 8.99771 15.0534 8.43546 15.3259 7.77765C15.5983 7.11984 15.6696 6.396 15.5307 5.69766C15.3918 4.99933 15.049 4.35787 14.5455 3.8544C14.042 3.35094 13.4006 3.00807 12.7022 2.86916C12.0039 2.73026 11.2801 2.80155 10.6222 3.07402C9.96443 3.3465 9.40218 3.80792 9.00661 4.39994C8.61104 4.99195 8.3999 5.68798 8.3999 6.39999C8.40096 7.35444 8.78059 8.2695 9.45549 8.9444C10.1304 9.61931 11.0454 9.99893 11.9999 9.99999ZM11.9999 3.59999C12.5537 3.59999 13.095 3.76421 13.5555 4.07187C14.016 4.37954 14.3748 4.81684 14.5868 5.32848C14.7987 5.84011 14.8541 6.4031 14.7461 6.94624C14.6381 7.48939 14.3714 7.9883 13.9798 8.37989C13.5882 8.77148 13.0893 9.03815 12.5462 9.14619C12.003 9.25423 11.44 9.19878 10.9284 8.98685C10.4168 8.77493 9.97946 8.41604 9.67179 7.95559C9.36412 7.49513 9.1999 6.95378 9.1999 6.39999C9.20075 5.65764 9.49602 4.94594 10.0209 4.42103C10.5459 3.89611 11.2576 3.60084 11.9999 3.59999Z" fill="#F9E9C7"/>
<path d="M12 8.40003C12.3956 8.40003 12.7822 8.28273 13.1111 8.06297C13.44 7.8432 13.6964 7.53085 13.8478 7.16539C13.9991 6.79994 14.0387 6.39781 13.9616 6.00985C13.8844 5.62188 13.6939 5.26552 13.4142 4.98581C13.1345 4.70611 12.7781 4.51563 12.3902 4.43845C12.0022 4.36128 11.6001 4.40089 11.2346 4.55227C10.8692 4.70364 10.5568 4.95999 10.3371 5.28889C10.1173 5.61778 10 6.00446 10 6.40003C10.0006 6.93026 10.2116 7.4386 10.5865 7.81354C10.9614 8.18847 11.4698 8.39939 12 8.40003ZM12 5.20003C12.2373 5.20003 12.4693 5.2704 12.6667 5.40226C12.864 5.53412 13.0178 5.72153 13.1087 5.94081C13.1995 6.16008 13.2232 6.40136 13.1769 6.63413C13.1306 6.86691 13.0164 7.08073 12.8485 7.24855C12.6807 7.41638 12.4669 7.53067 12.2341 7.57697C12.0013 7.62327 11.7601 7.59951 11.5408 7.50868C11.3215 7.41786 11.1341 7.26405 11.0022 7.06671C10.8704 6.86937 10.8 6.63736 10.8 6.40003C10.8 6.08177 10.9264 5.77654 11.1515 5.5515C11.3765 5.32645 11.6817 5.20003 12 5.20003Z" fill="#F9E9C7"/>
<path d="M24.0001 15.2002C23.9996 15.0339 23.9472 14.872 23.85 14.737C23.7529 14.602 23.616 14.5007 23.4585 14.4474L19.4117 13.0002L23.4589 11.5526C23.6166 11.4997 23.7537 11.3987 23.8508 11.2636C23.9479 11.1286 24.0001 10.9665 24.0001 10.8002C24.0001 10.6339 23.9479 10.4718 23.8508 10.3368C23.7537 10.2018 23.6166 10.1007 23.4589 10.0478L17.1789 7.79983C17.1897 7.75983 17.2033 7.71982 17.2129 7.67982L17.9517 7.45382C18.0671 7.41929 18.1694 7.35099 18.2455 7.25773C18.3217 7.16447 18.3681 7.05054 18.3789 6.93062C18.3949 6.75582 18.4025 6.57862 18.4025 6.40022C18.4025 6.22182 18.3949 6.04462 18.3789 5.86982C18.3681 5.74982 18.3216 5.63582 18.2454 5.54249C18.1691 5.44917 18.0667 5.38081 17.9513 5.34622L17.2105 5.12022C17.0815 4.5916 16.8717 4.08605 16.5885 3.62142L16.9513 2.94142C17.0088 2.83532 17.0332 2.71439 17.0212 2.5943C17.0092 2.47421 16.9615 2.36047 16.8841 2.26782C16.7716 2.13316 16.6516 2.00276 16.5241 1.87662C16.3966 1.75049 16.2661 1.63049 16.1325 1.51662C16.0399 1.43963 15.9264 1.39208 15.8066 1.38011C15.6868 1.36813 15.5661 1.39227 15.4601 1.44942L14.7769 1.81262C14.3129 1.52939 13.808 1.3192 13.2801 1.18942L13.0545 0.450623C13.0195 0.335413 12.951 0.233247 12.8576 0.157159C12.7643 0.0810718 12.6504 0.034513 12.5305 0.0234232C12.1776 -0.00837739 11.8226 -0.00837739 11.4697 0.0234232C11.3498 0.0344096 11.2358 0.0809851 11.1425 0.157174C11.0492 0.233362 10.9808 0.335689 10.9461 0.451023L10.7201 1.18942C10.1917 1.3188 9.68629 1.52872 9.22171 1.81182L8.53931 1.44902C8.43305 1.39174 8.31208 1.36756 8.19196 1.37961C8.07184 1.39166 7.95808 1.43938 7.86531 1.51662C7.73091 1.62862 7.60051 1.74862 7.47451 1.87662C7.34851 2.00462 7.22811 2.13302 7.11451 2.26742C7.03712 2.35995 6.98927 2.47357 6.97715 2.59358C6.96503 2.7136 6.98919 2.83449 7.04651 2.94062L7.40971 3.62342C7.12766 4.08769 6.91856 4.5925 6.78971 5.12022L6.05091 5.34622C5.93557 5.38076 5.83323 5.44906 5.75708 5.54232C5.68094 5.63557 5.63448 5.74951 5.62371 5.86942C5.60771 6.04422 5.60011 6.22142 5.60011 6.39982C5.60011 6.57822 5.60771 6.75542 5.62371 6.92942C5.63444 7.04955 5.68091 7.16371 5.75712 7.25717C5.83334 7.35064 5.9358 7.41914 6.05131 7.45382L6.78971 7.67942C6.79931 7.71942 6.81291 7.75942 6.82371 7.79942L0.541312 10.0478C0.383638 10.1007 0.246565 10.2018 0.149451 10.3368C0.0523371 10.4718 9.05692e-05 10.6339 9.05692e-05 10.8002C9.05692e-05 10.9665 0.0523371 11.1286 0.149451 11.2636C0.246565 11.3987 0.383638 11.4997 0.541312 11.5526L4.58851 13.0002L0.541312 14.4474C0.383544 14.5003 0.246386 14.6015 0.149211 14.7365C0.0520357 14.8716 -0.000244141 15.0338 -0.000244141 15.2002C-0.000244141 15.3666 0.0520357 15.5288 0.149211 15.6639C0.246386 15.799 0.383544 15.9001 0.541312 15.953L4.02891 17.2002L0.541312 18.4478C0.383544 18.5007 0.246386 18.6019 0.149211 18.7369C0.0520357 18.872 -0.000244141 19.0342 -0.000244141 19.2006C-0.000244141 19.367 0.0520357 19.5292 0.149211 19.6643C0.246386 19.7994 0.383544 19.9005 0.541312 19.9534L11.7125 23.9498C11.8979 24.017 12.1011 24.017 12.2865 23.9498L23.4585 19.9534C23.6163 19.9005 23.7534 19.7994 23.8506 19.6643C23.9478 19.5292 24.0001 19.367 24.0001 19.2006C24.0001 19.0342 23.9478 18.872 23.8506 18.7369C23.7534 18.6019 23.6163 18.5007 23.4585 18.4478L19.9717 17.2002L23.4589 15.953C23.6164 15.8996 23.7532 15.7984 23.8502 15.6634C23.9472 15.5284 23.9997 15.3665 24.0001 15.2002ZM6.41011 6.72702C6.40331 6.61902 6.40011 6.50982 6.40011 6.40022C6.40011 6.29062 6.40331 6.18182 6.41011 6.07342L7.24611 5.81782C7.3154 5.79676 7.37767 5.75728 7.42628 5.7036C7.47488 5.64992 7.50801 5.58405 7.52211 5.51302C7.63833 4.92294 7.87115 4.36199 8.20691 3.86302C8.24725 3.80285 8.2705 3.73285 8.27416 3.6605C8.27782 3.58815 8.26177 3.51616 8.22771 3.45222L7.81611 2.68022C7.88811 2.60022 7.96251 2.52022 8.04051 2.44222C8.11851 2.36422 8.19731 2.28942 8.28051 2.21782L9.05451 2.62942C9.11849 2.66342 9.19049 2.67941 9.26285 2.67568C9.3352 2.67194 9.40518 2.64863 9.46531 2.60822C9.96327 2.27184 10.5232 2.03796 11.1125 1.92022C11.1834 1.90619 11.2493 1.87318 11.3029 1.82472C11.3566 1.77626 11.3961 1.71416 11.4173 1.64502L11.6733 0.808623C11.891 0.795022 12.1093 0.795022 12.3269 0.808623L12.5829 1.64502C12.6041 1.71416 12.6436 1.77626 12.6973 1.82472C12.751 1.87318 12.8168 1.90619 12.8877 1.92022C13.4775 2.03645 14.0382 2.26927 14.5369 2.60502C14.597 2.64543 14.667 2.66874 14.7394 2.67248C14.8117 2.67621 14.8837 2.66022 14.9477 2.62622L15.7201 2.21622C15.8001 2.28782 15.8801 2.36302 15.9581 2.44062C16.0361 2.51822 16.1105 2.59742 16.1825 2.67862L15.7725 3.45222C15.7384 3.51621 15.7223 3.58827 15.7259 3.66071C15.7296 3.73314 15.7529 3.80321 15.7933 3.86342C16.1299 4.36201 16.3634 4.92287 16.4801 5.51302C16.4942 5.58405 16.5273 5.64992 16.5759 5.7036C16.6246 5.75728 16.6868 5.79676 16.7561 5.81782L17.5921 6.07342C17.5989 6.18142 17.6021 6.29062 17.6021 6.40022C17.6021 6.50982 17.5989 6.61862 17.5921 6.72702L16.7561 6.98262C16.6868 7.00369 16.6246 7.04316 16.5759 7.09684C16.5273 7.15053 16.4942 7.21639 16.4801 7.28743C16.3639 7.87751 16.1311 8.43846 15.7953 8.93743C15.755 8.9976 15.7317 9.0676 15.7281 9.13995C15.7244 9.2123 15.7405 9.28429 15.7745 9.34823L16.1841 10.1202C16.1121 10.2002 16.0377 10.2802 15.9597 10.3602C15.8817 10.4402 15.8029 10.513 15.7217 10.5846L14.9477 10.173C14.8837 10.139 14.8117 10.123 14.7394 10.1268C14.667 10.1305 14.597 10.1538 14.5369 10.1942C14.0383 10.5304 13.4776 10.7636 12.8877 10.8802C12.8168 10.8943 12.751 10.9273 12.6973 10.9757C12.6436 11.0242 12.6041 11.0863 12.5829 11.1554L12.3269 11.9918C12.1093 12.0054 11.891 12.0054 11.6733 11.9918L11.4173 11.1554C11.3961 11.0863 11.3566 11.0242 11.3029 10.9757C11.2493 10.9273 11.1834 10.8943 11.1125 10.8802C10.5225 10.764 9.96166 10.531 9.46291 10.195C9.40274 10.1547 9.33274 10.1314 9.26039 10.1278C9.18804 10.1241 9.11605 10.1402 9.05211 10.1742L8.28011 10.5838C8.20011 10.5126 8.12011 10.4374 8.04011 10.3598C7.96011 10.2822 7.88771 10.203 7.81571 10.1198L8.22731 9.34622C8.26145 9.28224 8.27754 9.21017 8.27388 9.13774C8.27022 9.06531 8.24693 8.99524 8.20651 8.93503C7.87061 8.43628 7.63779 7.87543 7.52171 7.28542C7.50761 7.21439 7.47448 7.14852 7.42588 7.09484C7.37727 7.04116 7.315 7.00169 7.24571 6.98062L6.41011 6.72702ZM7.09011 8.55422C7.1838 8.76919 7.2915 8.97777 7.41251 9.17863L7.04971 9.85863C6.99219 9.96473 6.96785 10.0857 6.97983 10.2057C6.99181 10.3258 7.03956 10.4396 7.11691 10.5322C7.22944 10.6669 7.34944 10.7973 7.47691 10.9234C7.60438 11.0496 7.73491 11.1696 7.86851 11.2834C7.96117 11.3603 8.07466 11.4077 8.19445 11.4197C8.31424 11.4317 8.43487 11.4076 8.54091 11.3506L9.22371 10.9874C9.68765 11.2707 10.1923 11.481 10.7201 11.611L10.9457 12.3498C10.9806 12.465 11.049 12.5672 11.1423 12.6432C11.2356 12.7192 11.3495 12.7657 11.4693 12.7766C11.6441 12.7926 11.8213 12.8002 11.9997 12.8002C12.1781 12.8002 12.3553 12.7926 12.5301 12.7766C12.6501 12.7657 12.764 12.7191 12.8573 12.6429C12.9506 12.5667 13.019 12.4644 13.0537 12.349L13.2793 11.611C13.8077 11.4817 14.3131 11.2717 14.7777 10.9886L15.4601 11.3514C15.5663 11.4088 15.6873 11.4331 15.8075 11.421C15.9276 11.409 16.0414 11.3612 16.1341 11.2838C16.2685 11.1718 16.3989 11.0518 16.5249 10.9238C16.6509 10.7958 16.7713 10.6674 16.8849 10.533C16.9623 10.4405 17.0102 10.3269 17.0223 10.2069C17.0344 10.0869 17.0102 9.96596 16.9529 9.85983L16.5897 9.17702C16.7106 8.97616 16.8182 8.76758 16.9117 8.55262L23.1893 10.8002L11.9829 14.7954L0.810911 10.8002L7.09011 8.55422ZM23.1893 19.2002L11.9829 23.1966L0.810911 19.2002L5.21611 17.6242L11.7129 19.9478C11.8983 20.015 12.1015 20.015 12.2869 19.9478L18.7841 17.625L23.1893 19.2002ZM11.9829 19.1954L0.810911 15.2002L5.77611 13.425L11.7129 15.5486C11.8983 15.6158 12.1015 15.6158 12.2869 15.5486L18.2241 13.425L23.1893 15.2002L11.9829 19.1954Z" fill="#F9E9C7"/>
<path d="M10.94 17.2236L6.4668 15.6236C6.3679 15.5916 6.26042 15.5993 6.16713 15.6452C6.07384 15.691 6.00207 15.7714 5.96702 15.8693C5.93198 15.9671 5.9364 16.0748 5.97937 16.1695C6.02233 16.2641 6.10046 16.3383 6.1972 16.3764L10.6704 17.9764C10.7136 17.992 10.7592 18 10.8052 18C10.8993 17.9998 10.9904 17.9665 11.0624 17.9059C11.1343 17.8452 11.1826 17.7611 11.1987 17.6684C11.2148 17.5757 11.1977 17.4802 11.1504 17.3989C11.1031 17.3175 11.0286 17.2554 10.94 17.2236Z" fill="#F9E9C7"/>
<path d="M10.94 21.2236L6.4668 19.6236C6.3679 19.5916 6.26042 19.5993 6.16713 19.6452C6.07384 19.691 6.00207 19.7714 5.96702 19.8693C5.93198 19.9671 5.9364 20.0748 5.97937 20.1695C6.02233 20.2641 6.10046 20.3383 6.1972 20.3764L10.6704 21.9764C10.7136 21.992 10.7592 22 10.8052 22C10.8993 21.9998 10.9904 21.9665 11.0624 21.9059C11.1343 21.8452 11.1826 21.7611 11.1987 21.6684C11.2148 21.5757 11.1977 21.4802 11.1504 21.3989C11.1031 21.3175 11.0286 21.2554 10.94 21.2236Z" fill="#F9E9C7"/>
</g>
<defs>
<clipPath id="clip0_543_299">
<rect width="24" height="24" fill="white"/>
</clipPath>
</defs>
</svg>
