<svg width="24" height="24" viewBox="0 0 24 24" fill="none" xmlns="http://www.w3.org/2000/svg">
<g clip-path="url(#clip0_543_437)">
<path d="M8.33212 5.63536C8.26317 5.84756 8.33104 6.075 8.50495 6.21483L10.0535 7.45945L9.53226 9.37659C9.47376 9.59184 9.55256 9.81572 9.73317 9.94706C9.91382 10.0781 10.151 10.0839 10.3377 9.96173L11.9999 8.87362L13.6622 9.96178C13.7518 10.0204 13.853 10.0496 13.954 10.0496C14.0635 10.0496 14.1728 10.0153 14.2666 9.94706C14.4473 9.81586 14.5261 9.59184 14.4675 9.37659L13.9463 7.4595L15.4947 6.21492C15.6688 6.07514 15.7366 5.84766 15.6676 5.63536C15.5987 5.42302 15.4101 5.27887 15.1872 5.26809L13.2028 5.17134L12.4976 3.31406C12.4184 3.10542 12.223 2.97056 11.9999 2.97056C11.7767 2.97056 11.5813 3.10537 11.5021 3.31402L10.7969 5.17139L8.81268 5.26809C8.5897 5.27887 8.40107 5.42302 8.33212 5.63536ZM10.9757 5.91352C11.1872 5.9032 11.3724 5.76863 11.4474 5.57072L11.9998 4.11595L12.5522 5.57086C12.6274 5.76872 12.8126 5.9032 13.0239 5.91352L14.5782 5.98931L13.3652 6.96417C13.2002 7.09688 13.1295 7.31461 13.185 7.5188L13.5933 9.02039L12.2913 8.16806C12.2027 8.11012 12.1012 8.08116 11.9998 8.08116C11.8983 8.08116 11.7967 8.11017 11.7081 8.16811L10.4062 9.02039L10.8144 7.51889C10.87 7.31456 10.7993 7.09678 10.6342 6.96417L9.42131 5.98936L10.9757 5.91352ZM11.6248 1.75116V0.375C11.6248 0.167906 11.7927 0 11.9998 0C12.2069 0 12.3748 0.167906 12.3748 0.375V1.75116C12.3748 1.95825 12.2069 2.12616 11.9998 2.12616C11.7927 2.12616 11.6248 1.95825 11.6248 1.75116ZM13.9085 3.97294C13.7699 3.81905 13.7824 3.58191 13.9363 3.44334L15.4698 2.0625C15.6237 1.92389 15.8608 1.93631 15.9994 2.09025C16.138 2.24414 16.1256 2.48128 15.9717 2.61984L14.4381 4.00069C14.3664 4.06523 14.2767 4.09702 14.1873 4.09702C14.0848 4.09702 13.9826 4.0552 13.9085 3.97294ZM8.0002 2.09025C8.13876 1.93631 8.37585 1.92389 8.52984 2.0625L10.0634 3.44334C10.2173 3.58191 10.2297 3.81905 10.0912 3.97294C10.0171 4.05516 9.9149 4.09702 9.81234 4.09702C9.72295 4.09702 9.63323 4.06523 9.56151 4.00069L8.02795 2.61984C7.87401 2.48128 7.86164 2.24414 8.0002 2.09025ZM16.8108 6.21483L18.3593 7.45945L17.8381 9.37659C17.7796 9.59184 17.8584 9.81572 18.039 9.94706C18.2195 10.0781 18.4567 10.0838 18.6435 9.96173L20.3057 8.87362L21.968 9.96178C22.0576 10.0204 22.1588 10.0496 22.2599 10.0496C22.3694 10.0496 22.4786 10.0153 22.5724 9.94706C22.753 9.81595 22.8319 9.59203 22.7733 9.37659L22.2521 7.4595L23.8005 6.21492C23.9745 6.07519 24.0424 5.8477 23.9734 5.63536C23.9045 5.42302 23.7158 5.27887 23.493 5.26809L21.5086 5.17134L20.8035 3.31406C20.7243 3.10542 20.5289 2.97056 20.3057 2.97056C20.0825 2.97056 19.8871 3.10537 19.8079 3.31402L19.1028 5.17134L17.1186 5.26805C16.8955 5.27883 16.7069 5.42302 16.6379 5.63536C16.5689 5.84766 16.6368 6.07514 16.8108 6.21483ZM19.2815 5.91352C19.493 5.9032 19.6783 5.76863 19.7534 5.57067L20.3057 4.11591L20.858 5.57062C20.9331 5.76862 21.1184 5.9032 21.3298 5.91347L22.884 5.98927L21.6712 6.96403C21.5061 7.09669 21.4353 7.31447 21.4909 7.51875L21.8992 9.02034L20.5972 8.16802C20.5086 8.11008 20.4071 8.08111 20.3056 8.08111C20.2041 8.08111 20.1025 8.11012 20.014 8.16806L18.7121 9.02034L19.1203 7.51884C19.1759 7.31461 19.1052 7.09687 18.9401 6.96412L17.7272 5.98927L19.2815 5.91352ZM0.199026 6.21483L1.74754 7.45945L1.22634 9.37659C1.16784 9.59184 1.24664 9.81572 1.42724 9.94706C1.6079 10.0781 1.84504 10.0839 2.03174 9.96173L3.69398 8.87362L5.35626 9.96178C5.44589 10.0204 5.54709 10.0496 5.6481 10.0496C5.7576 10.0496 5.86687 10.0153 5.96067 9.94706C6.14128 9.81595 6.22012 9.59203 6.16157 9.37659L5.64037 7.4595L7.18879 6.21492C7.3627 6.07528 7.43062 5.84784 7.36167 5.63513C7.29257 5.42292 7.10395 5.27883 6.88124 5.26805L4.89689 5.1713L4.19174 3.31406C4.11257 3.10542 3.91715 2.97056 3.69398 2.97056C3.47076 2.97056 3.27534 3.10537 3.19617 3.31402L2.49103 5.17134L0.506807 5.26805C0.283823 5.27883 0.0951976 5.42302 0.0262913 5.63513C-0.0428493 5.84752 0.0249788 6.07509 0.199026 6.21483ZM2.66971 5.91352C2.88126 5.9032 3.06651 5.76863 3.1416 5.57067L3.69393 4.11591L4.24621 5.57062C4.32135 5.76862 4.5066 5.9032 4.71806 5.91347L6.27229 5.98927L5.05949 6.96403C4.89435 7.09669 4.82357 7.31447 4.87917 7.51875L5.2874 9.02034L3.9854 8.16802C3.89681 8.11008 3.79532 8.08111 3.69384 8.08111C3.59231 8.08111 3.49078 8.11012 3.40223 8.16806L2.10032 9.02034L2.50856 7.51884C2.5641 7.31461 2.49342 7.09687 2.32832 6.96412L1.11543 5.98927L2.66971 5.91352ZM23.9408 19.9187C23.6769 19.0666 23.1365 18.3015 22.419 17.7643C22.0755 17.5071 21.7014 17.3067 21.3068 17.1649C21.8539 16.7355 22.2064 16.0689 22.2064 15.3211C22.2064 14.029 21.1551 12.9778 19.863 12.9778C18.5709 12.9778 17.5196 14.029 17.5196 15.3211C17.5196 16.068 17.8713 16.734 18.4173 17.1634C17.6855 17.4246 17.0372 17.8835 16.5408 18.5018C16.3087 18.1772 16.0411 17.8757 15.7402 17.6036C15.1339 17.0553 14.4224 16.6527 13.6561 16.4147C14.4687 15.876 15.0059 14.9536 15.0059 13.9078C15.0059 12.2503 13.6574 10.9018 11.9999 10.9018C10.3424 10.9018 8.99381 12.2503 8.99381 13.9078C8.99381 14.9536 9.53095 15.876 10.3435 16.4147C9.57721 16.6526 8.8657 17.0553 8.25942 17.6036C7.95853 17.8757 7.69087 18.1772 7.45889 18.5018C6.96248 17.8834 6.3142 17.4245 5.58239 17.1632C6.12834 16.7338 6.48004 16.0679 6.48004 15.321C6.48004 14.0288 5.42878 12.9776 4.13667 12.9776C2.84451 12.9776 1.79324 14.0288 1.79324 15.321C1.79324 16.0688 2.14574 16.7354 2.69278 17.1647C2.29818 17.3066 1.92412 17.5069 1.58057 17.7641C0.863057 18.3014 0.322635 19.0665 0.0587757 19.9185C-0.0631462 20.3121 0.00440069 20.7115 0.248948 21.0433C0.493448 21.375 0.855041 21.5576 1.26707 21.5576H6.45112V22.2344C6.45112 23.208 7.24317 24 8.21676 24H15.7829C16.7564 24 17.5485 23.208 17.5485 22.2344V21.5578H22.7325C23.1446 21.5578 23.5062 21.3751 23.7507 21.0435C23.9952 20.7117 24.0627 20.3123 23.9408 19.9187ZM19.863 13.7278C20.7416 13.7278 21.4564 14.4426 21.4564 15.3211C21.4564 16.1998 20.7416 16.9146 19.863 16.9146C18.9844 16.9146 18.2696 16.1998 18.2696 15.3211C18.2696 14.4426 18.9844 13.7278 19.863 13.7278ZM9.74381 13.9078C9.74381 12.6638 10.7559 11.6518 11.9999 11.6518C13.2438 11.6518 14.2559 12.6638 14.2559 13.9078C14.2559 15.1514 13.2445 16.1632 12.0011 16.1638C12.0007 16.1638 12.0002 16.1638 11.9998 16.1638C11.9994 16.1638 11.999 16.1638 11.9986 16.1638C10.7552 16.1631 9.74381 15.1514 9.74381 13.9078ZM4.13667 13.7276C5.01524 13.7276 5.73004 14.4424 5.73004 15.321C5.73004 16.1996 5.01524 16.9144 4.13667 16.9144C3.25804 16.9144 2.54324 16.1996 2.54324 15.321C2.54324 14.4424 3.25804 13.7276 4.13667 13.7276ZM6.49982 20.8076H1.26712C1.09453 20.8076 0.955119 20.7372 0.852698 20.5982C0.750229 20.4593 0.724213 20.3053 0.77526 20.1404C1.23389 18.6594 2.58478 17.6644 4.13667 17.6644C5.31056 17.6644 6.37992 18.2316 7.03762 19.1917C6.7776 19.6968 6.59549 20.2413 6.49982 20.8076ZM16.7985 22.2344C16.7985 22.7944 16.3429 23.25 15.7829 23.25H8.21676C7.65674 23.25 7.20112 22.7944 7.20112 22.2344V21.203C7.47262 18.7567 9.53156 16.9144 11.9986 16.9138C11.999 16.9138 11.9994 16.9139 11.9999 16.9139C12.0003 16.9139 12.0007 16.9138 12.0011 16.9138C14.4681 16.9145 16.5269 18.7567 16.7985 21.203V22.2344ZM23.147 20.5985C23.0445 20.7374 22.9052 20.8078 22.7325 20.8078H17.4999C17.4042 20.2414 17.2221 19.697 16.9621 19.1918C17.6198 18.2317 18.6891 17.6646 19.863 17.6646C21.4149 17.6646 22.7658 18.6596 23.2244 20.1406C23.2754 20.3054 23.2494 20.4594 23.147 20.5985Z" fill="#F9E9C7"/>
</g>
<defs>
<clipPath id="clip0_543_437">
<rect width="24" height="24" fill="white"/>
</clipPath>
</defs>
</svg>
